<?xml version="1.0" encoding="UTF-8"?>
<svg id="Layer_2" data-name="Layer 2" xmlns="http://www.w3.org/2000/svg" xmlns:xlink="http://www.w3.org/1999/xlink" viewBox="0 0 1616.28 1680.23">
  <defs>
    <style>
      .cls-1 {
        fill: none;
      }

      .cls-2 {
        fill: #ffd576;
      }

      .cls-3 {
        fill: #dbbe50;
        stroke: #dbbe50;
      }

      .cls-3, .cls-4 {
        stroke-miterlimit: 10;
        stroke-width: 2px;
      }

      .cls-5 {
        fill: #f9bf36;
      }

      .cls-4 {
        fill: #fff;
        stroke: #fff;
      }

      .cls-6 {
        fill: #d3a60f;
      }

      .cls-7 {
        clip-path: url(#clippath);
      }
    </style>
    <clipPath id="clippath">
      <path class="cls-1" d="M1359.84,808.14c0,25.95-31.06,49.4-34.62,74.37-3.65,25.59,19.53,56.8,12.41,81.1-7.25,24.72-43.67,38.46-54.23,61.56-10.68,23.36,2.71,59.87-11.08,81.28-13.87,21.54-52.68,24.46-69.41,43.74-16.76,19.32-14.15,58.15-33.47,74.9-19.28,16.72-57.34,8.66-78.88,22.53-21.41,13.79-29.81,51.8-53.17,62.48-23.1,10.57-57.32-7.9-82.03-.66-24.29,7.12-43.1,41.2-68.69,44.85-24.97,3.56-52.56-23.82-78.52-23.82s-53.55,27.38-78.51,23.82c-25.59-3.65-44.4-37.73-68.69-44.85-24.72-7.25-58.93,11.22-82.03.66-23.36-10.68-31.75-48.69-53.17-62.48-21.54-13.87-59.6-5.81-78.88-22.53-19.32-16.75-16.72-55.58-33.47-74.9-16.72-19.28-55.53-22.2-69.41-43.74-13.79-21.41-.4-57.93-11.08-81.28-10.57-23.1-46.99-36.84-54.23-61.56-7.12-24.29,16.06-55.51,12.41-81.1-3.56-24.97-34.62-48.42-34.62-74.37s31.06-49.4,34.62-74.37c3.65-25.59-19.53-56.8-12.41-81.1,7.25-24.72,43.67-38.46,54.23-61.56,10.68-23.36-2.71-59.87,11.08-81.28,13.87-21.54,52.68-24.46,69.41-43.74,16.76-19.32,14.15-58.15,33.47-74.9,19.28-16.72,57.34-8.66,78.88-22.53,21.41-13.79,29.81-51.8,53.17-62.48,23.1-10.57,57.32,7.9,82.03.66,24.29-7.12,43.1-41.2,68.69-44.85,24.97-3.56,52.56,23.82,78.51,23.82s53.55-27.38,78.51-23.82c25.59,3.65,44.4,37.73,68.69,44.85,24.72,7.25,58.94-11.22,82.03-.66,23.36,10.68,31.75,48.69,53.17,62.48,21.54,13.87,59.6,5.81,78.88,22.53,19.32,16.76,16.72,55.58,33.47,74.9,16.72,19.28,55.53,22.2,69.41,43.74,13.79,21.41.4,57.93,11.08,81.28,10.57,23.1,46.99,36.84,54.23,61.56,7.12,24.29-16.05,55.51-12.41,81.1,3.56,24.97,34.62,48.42,34.62,74.37Z"/>
    </clipPath>
  </defs>
  <g id="_ÉåÉCÉÑÅ_1" data-name="ÉåÉCÉÑÅ[ 1">
    <g>
      <polygon class="cls-6" points="848.62 1094.33 794.53 1072.56 740.45 1050.78 686.37 1029 450.43 1614.89 564.81 1564.98 612.68 1680.23 848.62 1094.33"/>
      <polygon class="cls-6" points="808.14 1094.33 862.22 1072.56 916.31 1050.78 970.39 1029 1206.33 1614.89 1091.95 1564.98 1044.08 1680.23 808.14 1094.33"/>
      <g class="cls-7">
        <g>
          <path class="cls-5" d="M693.12,8.13c-38.51,5.49-76.15,13.69-112.71,24.41l227.74,775.6L693.12,8.13Z"/>
          <path class="cls-2" d="M580.41,32.55c-37.2,10.91-73.29,24.41-108.05,40.32l335.79,735.28L580.41,32.55Z"/>
          <path class="cls-2" d="M808.14,0c-39.05,0-77.45,2.78-115.02,8.13l115.02,800.01V0Z"/>
          <path class="cls-5" d="M472.35,72.86c-35.15,16.08-68.95,34.6-101.17,55.35l436.96,679.93L472.35,72.86Z"/>
          <path class="cls-5" d="M923.17,8.13c-37.57-5.35-75.97-8.13-115.02-8.13v808.14L923.17,8.13Z"/>
          <path class="cls-5" d="M32.55,580.41c-10.72,36.56-18.92,74.2-24.41,112.71l800.01,115.02L32.55,580.41Z"/>
          <path class="cls-5" d="M128.21,371.18c-20.75,32.23-39.27,66.02-55.35,101.17l735.28,335.79L128.21,371.18Z"/>
          <path class="cls-2" d="M72.86,472.35c-15.9,34.77-29.41,70.85-40.32,108.06l775.6,227.74L72.86,472.35Z"/>
          <path class="cls-2" d="M1035.88,32.55c-36.56-10.72-74.2-18.92-112.71-24.41l-115.02,800.01L1035.88,32.55Z"/>
          <path class="cls-5" d="M278.91,197.38c-29.07,25.21-56.32,52.46-81.53,81.53l610.76,529.23L278.91,197.38Z"/>
          <path class="cls-2" d="M197.38,278.92c-25.17,29.02-48.29,59.85-69.17,92.26l679.93,436.96L197.38,278.92Z"/>
          <path class="cls-5" d="M808.14,808.14l775.6,227.74c10.72-36.56,18.92-74.2,24.41-112.71l-800.01-115.02Z"/>
          <path class="cls-5" d="M1583.74,580.41c-10.91-37.2-24.41-73.29-40.32-108.06l-735.28,335.79,775.6-227.74Z"/>
          <path class="cls-5" d="M1143.93,72.86c-34.77-15.9-70.85-29.41-108.05-40.32l-227.74,775.6L1143.93,72.86Z"/>
          <path class="cls-2" d="M1608.15,923.17c5.35-37.57,8.13-75.97,8.13-115.02h-808.14l800.01,115.02Z"/>
          <path class="cls-2" d="M1543.42,472.35c-16.08-35.15-34.6-68.95-55.35-101.17l-679.93,436.96,735.28-335.79Z"/>
          <path class="cls-5" d="M1616.28,808.14c0-39.05-2.78-77.45-8.13-115.02l-800.01,115.02h808.14Z"/>
          <path class="cls-2" d="M1608.15,693.12c-5.49-38.51-13.69-76.15-24.41-112.71l-775.6,227.74,800.01-115.02Z"/>
          <path class="cls-5" d="M1337.37,197.38c-29.02-25.16-59.85-48.29-92.26-69.17l-436.96,679.93L1337.37,197.38Z"/>
          <path class="cls-5" d="M1488.07,371.18c-20.88-32.42-44-63.25-69.17-92.26l-610.76,529.23,679.93-436.96Z"/>
          <path class="cls-2" d="M1245.11,128.21c-32.23-20.75-66.02-39.27-101.17-55.35l-335.79,735.28,436.96-679.93Z"/>
          <path class="cls-2" d="M1418.9,278.92c-25.21-29.07-52.46-56.32-81.53-81.53l-529.23,610.76,610.76-529.23Z"/>
          <path class="cls-2" d="M371.18,128.21c-32.42,20.88-63.25,44-92.26,69.17l529.23,610.76L371.18,128.21Z"/>
          <path class="cls-5" d="M1143.93,1543.42c35.15-16.08,68.95-34.6,101.17-55.35l-436.96-679.93,335.79,735.28Z"/>
          <path class="cls-2" d="M1035.88,1583.74c37.2-10.91,73.29-24.41,108.05-40.32l-335.79-735.28,227.74,775.6Z"/>
          <path class="cls-2" d="M808.14,1616.28c39.05,0,77.45-2.78,115.02-8.13l-115.02-800.01v808.14Z"/>
          <path class="cls-5" d="M923.17,1608.15c38.51-5.49,76.15-13.69,112.71-24.41l-227.74-775.6,115.02,800.01Z"/>
          <path class="cls-2" d="M1245.11,1488.07c32.42-20.88,63.25-44,92.26-69.17l-529.23-610.76,436.96,679.93Z"/>
          <path class="cls-2" d="M1418.9,1337.37c25.16-29.02,48.29-59.85,69.17-92.26l-679.93-436.96,610.76,529.23Z"/>
          <path class="cls-5" d="M1337.37,1418.9c29.07-25.21,56.32-52.46,81.53-81.53l-610.76-529.23,529.23,610.76Z"/>
          <path class="cls-5" d="M1488.07,1245.11c20.75-32.23,39.27-66.02,55.35-101.17l-735.28-335.79,679.93,436.96Z"/>
          <path class="cls-2" d="M1543.42,1143.93c15.9-34.77,29.41-70.85,40.32-108.05l-775.6-227.74,735.28,335.79Z"/>
          <path class="cls-5" d="M693.12,1608.15c37.57,5.35,75.97,8.13,115.02,8.13v-808.14l-115.02,800.01Z"/>
          <path class="cls-5" d="M278.91,1418.9c29.02,25.16,59.85,48.29,92.26,69.17l436.96-679.93-529.23,610.76Z"/>
          <path class="cls-2" d="M72.86,1143.93c16.08,35.15,34.6,68.95,55.35,101.17l679.93-436.96L72.86,1143.93Z"/>
          <path class="cls-5" d="M32.55,1035.88c10.91,37.2,24.41,73.29,40.32,108.05l735.28-335.79L32.55,1035.88Z"/>
          <path class="cls-5" d="M128.21,1245.11c20.88,32.42,44,63.25,69.17,92.26l610.76-529.23-679.93,436.96Z"/>
          <path class="cls-5" d="M0,808.14c0,39.05,2.78,77.45,8.13,115.02l800.01-115.02H0Z"/>
          <path class="cls-2" d="M8.13,923.17c5.49,38.51,13.69,76.15,24.41,112.71l775.6-227.74L8.13,923.17Z"/>
          <path class="cls-5" d="M472.35,1543.42c34.77,15.9,70.85,29.41,108.05,40.32l227.74-775.6-335.79,735.28Z"/>
          <path class="cls-2" d="M371.18,1488.07c32.23,20.75,66.02,39.27,101.17,55.35l335.79-735.28-436.96,679.93Z"/>
          <path class="cls-2" d="M580.41,1583.74c36.56,10.72,74.2,18.92,112.71,24.41l115.02-800.01-227.74,775.6Z"/>
          <path class="cls-2" d="M8.13,693.12c-5.35,37.57-8.13,75.97-8.13,115.02h808.14L8.13,693.12Z"/>
          <path class="cls-2" d="M197.38,1337.37c25.21,29.07,52.46,56.32,81.53,81.53l529.23-610.76L197.38,1337.37Z"/>
        </g>
      </g>
      <g>
        <path class="cls-4" d="M1167.26,808.15c0,95.92-37.35,186.1-105.18,253.93-67.85,67.82-158.01,105.2-253.95,105.2s-186.1-37.38-253.93-105.2c-67.82-67.82-105.18-158.01-105.18-253.93s37.35-186.1,105.18-253.95c67.82-67.82,158.01-105.18,253.93-105.18s186.1,37.35,253.95,105.18c67.82,67.85,105.18,158.04,105.18,253.95Z"/>
        <path class="cls-3" d="M808.13,420.08c-214.31,0-388.03,173.75-388.03,388.06s173.72,388.06,388.03,388.06,388.06-173.75,388.06-388.06-173.75-388.06-388.06-388.06ZM808.13,1167.28c-95.92,0-186.1-37.38-253.93-105.2-67.82-67.82-105.18-158.01-105.18-253.93s37.35-186.1,105.18-253.95c67.82-67.82,158.01-105.18,253.93-105.18s186.1,37.35,253.95,105.18c67.82,67.85,105.18,158.04,105.18,253.95s-37.35,186.1-105.18,253.93c-67.85,67.82-158.01,105.2-253.95,105.2Z"/>
      </g>
    </g>
  </g>
</svg>