<?xml version="1.0" encoding="UTF-8"?>
<svg xmlns="http://www.w3.org/2000/svg" viewBox="0 0 885.42 894.35">
  <defs>
    <style>
      .cls-1, .cls-2 {
        fill: #feeca2;
      }

      .cls-3 {
        fill: #d89500;
      }

      .cls-4 {
        isolation: isolate;
      }

      .cls-5 {
        fill: #fff;
      }

      .cls-6 {
        fill: #fb9e01;
      }

      .cls-7 {
        fill: #efab00;
      }

      .cls-2 {
        mix-blend-mode: screen;
        opacity: .5;
      }

      .cls-8 {
        fill: #fbc606;
      }

      .cls-9 {
        fill: #f2690b;
      }
    </style>
  </defs>
  <g class="cls-4">
    <g id="Layer_2" data-name="Layer 2">
      <g id="Background">
        <g>
          <g>
            <g>
              <circle class="cls-9" cx="449.76" cy="458.69" r="435.66"/>
              <path class="cls-8" d="M871.3,435.66c0,35.81-4.32,70.59-12.46,103.86-8.02,32.82-19.76,64.19-34.76,93.63-10.71,21.02-23.08,41.05-36.93,59.92-.15.19-.28.4-.43.59-17.98,24.44-38.45,46.92-61.04,67.08-18.77,16.78-39.02,31.94-60.51,45.28-8.64,5.37-17.46,10.44-26.49,15.2-43.95,23.19-92.37,39.09-143.6,46.08-19.44,2.65-39.27,4.02-59.43,4.02C195.04,871.33,0,676.28,0,435.66c0-56.33,10.7-110.21,30.18-159.65,2.7-6.85,5.57-13.61,8.6-20.29,20.08-44.22,47.36-84.51,80.3-119.34,1.61-1.7,3.22-3.38,4.86-5.06,14.91-15.3,30.98-29.51,48.03-42.46,11.13-8.49,22.69-16.46,34.63-23.84,16.37-10.15,33.48-19.24,51.21-27.17,10.18-4.56,20.57-8.74,31.15-12.52C334.8,8.93,384.19,0,435.65,0c240.61,0,435.66,195.04,435.66,435.66Z"/>
            </g>
            <g>
              <path class="cls-6" d="M778.7,447.17c0,8.3-.3,16.53-.89,24.69-2.63,36.04-10.97,70.53-24.13,102.54-6.3,15.33-13.69,30.1-22.09,44.2-3.84,6.45-7.9,12.75-12.14,18.9-13.37,19.4-28.74,37.33-45.8,53.5-23.47,22.25-50.15,41.15-79.27,55.94-2.7,1.37-5.41,2.7-8.15,4-43.54,20.68-92.21,32.24-143.52,32.24-3.53,0-7.04-.06-10.54-.17-180.43-5.58-325.45-154.1-325.45-335.83,0-29.57,3.83-58.27,11.03-85.59.9-3.39,1.85-6.76,2.84-10.1,14.33-48.15,39.18-91.81,71.9-128.3,4.36-4.89,8.87-9.64,13.52-14.25,16.97-16.87,35.76-31.95,56.01-44.93,4.16-2.67,8.38-5.24,12.67-7.72,25.94-15.04,54.08-26.71,83.8-34.4.69-.18,1.39-.36,2.1-.52,26.28-6.66,53.81-10.17,82.13-10.17,185.27,0,335.98,150.73,335.98,336Z"/>
              <path class="cls-9" d="M736.13,283.61c-60.35-90.03-163.02-149.4-279.3-149.4-185.26,0-335.99,150.73-335.99,335.99,0,59.29,15.43,115.05,42.51,163.45-35.76-53.39-56.63-117.54-56.63-186.48,0-185.26,150.73-335.99,335.99-335.99,125.93,0,235.9,69.63,293.42,172.42Z"/>
            </g>
            <g>
              <path class="cls-8" d="M659.39,436.84l-32.49,41.43-19.73,25.15c-6.65,8.49-10.17,19-9.98,29.77l1.04,56.71.51,27.91c.6,32.91-32.03,56.16-62.95,44.85l-21.18-7.75-58.29-21.34c-10.12-3.7-21.2-3.81-31.4-.28l-79.98,27.61c-1.04.36-2.08.68-3.12.96-30.12,8.18-60.16-15.15-59-46.96l1.13-30.6,1.98-53.98c.39-10.77-2.94-21.35-9.43-29.95l-50.98-67.53c-19.85-26.28-7.11-64.29,24.56-73.3l36.43-10.38,44.95-12.8c10.37-2.95,19.39-9.39,25.56-18.22l18.6-26.61,29.88-42.75c8.67-12.42,21.84-19.05,35.32-19.91,15.82-1.03,32.07,5.87,41.98,20.62l47.2,70.24c6,8.94,14.92,15.55,25.23,18.69l80.94,24.66c31.5,9.6,43.53,47.84,23.22,73.74Z"/>
              <path class="cls-9" d="M344.93,660.91h-.01c-.51.19-1.04.36-1.55.51.52-.16,1.04-.33,1.56-.51Z"/>
              <path class="cls-9" d="M659.38,436.83l-32.49,41.43-19.73,25.17c-.21.25-.4.51-.59.77-.19.26-.39.52-.58.8-1.96,2.75-3.62,5.67-4.94,8.74-.24.55-.47,1.09-.68,1.65-.22.55-.42,1.12-.62,1.67-.39,1.12-.73,2.24-1.03,3.38-.08.3-.15.59-.22.89-.13.44-.22.89-.31,1.33-.27,1.26-.49,2.55-.65,3.84-.27,2.2-.4,4.44-.35,6.69l1.56,84.62c.59,32.9-32.06,56.15-62.96,44.85l-21.18-7.75h0s-58.28-21.34-58.28-21.34h-.01c-5.21-1.9-10.66-2.86-16.12-2.85-1.29,0-2.57.06-3.85.16h-.01c-1.29.1-2.56.26-3.84.48h-.01c-2.55.42-5.08,1.06-7.55,1.91h-.01s-79.98,27.63-79.98,27.63c-.52.18-1.04.35-1.56.51-.52.16-1.04.31-1.56.44-27.6,7.51-55.17-11.48-58.66-39.21,9.57,14.39,26.77,22.96,44.82,20.67,3.18-.41,6.38-1.14,9.57-2.24l79.98-27.64c10.2-3.51,21.29-3.39,31.4.3l48.09,17.59,31.41,11.49c30.9,11.34,63.55-11.95,62.95-44.85l-.33-17.69-1.23-66.92c-.21-10.78,3.33-21.29,9.97-29.78l15.93-20.31,36.3-46.29c8.26-10.53,11.16-23.1,9.59-34.96,10.55,16.01,10.99,37.99-2.21,54.81Z"/>
            </g>
          </g>
          <path class="cls-2" d="M192.49,223.18c-32.72,36.49-57.56,80.14-71.9,128.3-.99,3.35-1.94,6.71-2.84,10.1l-78.98-105.87c20.08-44.22,47.36-84.51,80.3-119.34,1.61-1.7,3.22-3.38,4.86-5.06l68.55,91.87Z"/>
          <path class="cls-2" d="M638.68,821.22c-43.95,23.19-92.37,39.09-143.6,46.08l-62.9-84.3c3.5.11,7.01.17,10.54.17,51.31,0,99.98-11.56,143.52-32.24l52.44,70.29Z"/>
          <path class="cls-1" d="M432.48,631.37c-2.55.43-5.08,1.07-7.56,1.93h.01c2.47-.87,5-1.5,7.55-1.93Z"/>
          <path class="cls-1" d="M436.33,630.89c-1.29.11-2.56.27-3.84.48,1.28-.22,2.55-.38,3.84-.48Z"/>
          <path class="cls-2" d="M497,631.33l-48.09-17.59c-10.1-3.69-21.2-3.81-31.4-.3l-79.98,27.64c-3.19,1.1-6.39,1.83-9.57,2.24l-44.03-59.01,1.98-53.98c.39-10.77-2.94-21.35-9.43-29.95l-50.98-67.53c-19.85-26.28-7.11-64.29,24.56-73.3l36.43-10.38,210.5,282.15Z"/>
          <polygon class="cls-1" points="514.6 654.91 514.6 654.92 456.32 633.58 514.6 654.91"/>
          <path class="cls-2" d="M360.59,121.35c-.71.16-1.4.34-2.1.52-29.72,7.69-57.86,19.37-83.8,34.4l-68.09-91.26c16.37-10.15,33.48-19.24,51.21-27.17,10.18-4.56,20.57-8.74,31.15-12.52l71.63,96.02Z"/>
          <path class="cls-2" d="M787.15,693.07c-.15.19-.28.4-.43.59-17.98,24.44-38.45,46.92-61.04,67.08l-52.03-69.74c17.05-16.17,32.42-34.1,45.8-53.5,4.25-6.15,8.3-12.45,12.14-18.9l55.56,74.47Z"/>
          <path class="cls-2" d="M599.77,483.58c-6.64,8.49-10.17,19-9.97,29.78l1.23,66.92-215.41-288.73,29.88-42.75c8.67-12.42,21.84-19.05,35.32-19.91l174.88,234.39-15.93,20.31Z"/>
          <path class="cls-1" d="M626.9,478.28l-19.73,25.15c-.2.25-.4.51-.6.77.19-.26.39-.52.59-.77l19.73-25.17h.01Z"/>
          <path class="cls-5" d="M323.59,337.26c-24.04,5.12-32.02,13.11-37.15,37.15-.84,3.93-6.44,3.93-7.28,0-5.12-24.04-13.11-32.02-37.15-37.15-3.93-.84-3.93-6.44,0-7.28,24.04-5.12,32.02-13.11,37.15-37.15.84-3.93,6.44-3.93,7.28,0,5.12,24.04,13.11,32.02,37.15,37.15,3.93.84,3.93,6.44,0,7.28Z"/>
          <path class="cls-5" d="M653.97,577.41c-36.51,7.78-48.63,19.9-56.41,56.41-1.27,5.97-9.79,5.97-11.06,0-7.78-36.51-19.9-48.63-56.41-56.41-5.97-1.27-5.97-9.79,0-11.06,36.51-7.78,48.63-19.9,56.41-56.41,1.27-5.97,9.79-5.97,11.06,0,7.78,36.51,19.9,48.63,56.41,56.41,5.97,1.27,5.97,9.79,0,11.06Z"/>
          <g>
            <g>
              <circle class="cls-7" cx="363.69" cy="432.17" r="24.34" transform="translate(-140.48 686.84) rotate(-76.72)"/>
              <circle class="cls-7" cx="535.84" cy="432.17" r="24.34" transform="translate(-7.88 854.38) rotate(-76.72)"/>
            </g>
            <path class="cls-7" d="M449.76,509.56c-24.5,0-49.31-16.94-49.31-49.31h25.24c0,17.76,12.97,24.07,24.07,24.07s24.07-6.3,24.07-24.07h25.24c0,32.37-24.81,49.31-49.31,49.31Z"/>
            <g>
              <path class="cls-3" d="M387.63,427.77c-3.43-9.29-12.37-15.91-22.84-15.91-13.45,0-24.34,10.9-24.34,24.34,0,1.53.14,3.01.42,4.45-.98-2.65-1.53-5.5-1.53-8.48,0-13.45,10.9-24.35,24.35-24.35,11.94,0,21.87,8.6,23.93,19.95Z"/>
              <path class="cls-3" d="M559.76,427.72c-3.43-9.27-12.37-15.86-22.83-15.86-13.44,0-24.34,10.9-24.34,24.34,0,1.5.14,2.97.41,4.39-.97-2.62-1.5-5.46-1.5-8.42,0-13.45,10.9-24.35,24.34-24.35,11.92,0,21.84,8.58,23.92,19.9Z"/>
            </g>
            <path class="cls-3" d="M474.12,460.24c-.49,17.14-12.39,28.1-23.26,28.1s-27.34-5.94-27.34-23.71l-21.96-.36c0,4.54.49,8.79,1.39,12.71-1.6-5.02-2.5-10.61-2.5-16.75h25.25c0,17.77,12.97,24.07,24.07,24.07s24.07-6.3,24.07-24.07h.28Z"/>
          </g>
        </g>
      </g>
    </g>
  </g>
</svg>