<?xml version="1.0" encoding="UTF-8"?>
<svg xmlns="http://www.w3.org/2000/svg" viewBox="0 0 1117.03 891.96">
  <defs>
    <style>
      .cls-1 {
        fill: #abe1f9;
        mix-blend-mode: screen;
        opacity: .5;
      }

      .cls-2 {
        fill: #006dae;
      }

      .cls-3 {
        isolation: isolate;
      }

      .cls-4 {
        fill: #018edd;
      }

      .cls-5 {
        fill: #0bc7f5;
      }

      .cls-6 {
        fill: #fff;
      }

      .cls-7 {
        fill: #11c1f3;
      }

      .cls-8 {
        fill: #28dfef;
      }

      .cls-9 {
        fill: #06cfe9;
      }

      .cls-10 {
        fill: #0465aa;
      }

      .cls-11 {
        fill: #2ce3ff;
      }

      .cls-12 {
        fill: #17fbfa;
      }

      .cls-13 {
        fill: #004574;
      }
    </style>
  </defs>
  <g class="cls-3">
    <g id="Layer_2" data-name="Layer 2">
      <g id="Object">
        <g>
          <g>
            <polygon class="cls-11" points="925.61 79.81 742.04 159.62 374.92 159.62 191.37 79.81 374.92 0 742.04 0 925.61 79.81"/>
            <polygon class="cls-7" points="841.05 469.15 274.36 469.15 353.23 226.38 374.92 159.62 740.49 159.62 841.05 469.15"/>
            <polygon class="cls-12" points="274.37 469.15 0 316.02 191.36 79.81 374.93 159.63 274.37 469.15"/>
            <polygon class="cls-4" points="841.05 469.15 1117.03 316.02 925.66 79.81 740.49 159.63 841.05 469.15"/>
            <polygon class="cls-4" points="274.37 469.15 558.49 891.96 841.05 469.15 274.37 469.15"/>
            <path class="cls-2" d="M558.49,891.96s393.43-148.55,558.54-575.94l-275.98,153.13-282.56,422.81Z"/>
            <path class="cls-5" d="M558.49,891.96S165.11,743.4,0,316.02l275.98,153.13,282.51,422.81Z"/>
            <path class="cls-9" d="M925.61,79.81l-183.57,79.81h-326.21c99.71-3.1,256.63-18.3,310.94-81.29,27.89-32.35-72.76-59.27-183.11-78.33h198.37l183.57,79.81Z"/>
            <polygon class="cls-1" points="575.83 469.15 462.26 469.15 353.23 226.38 374.92 159.62 436.82 159.62 575.83 469.15"/>
            <polygon class="cls-1" points="739.52 469.15 676.07 469.15 537.04 159.62 600.52 159.62 739.52 469.15"/>
            <path class="cls-6" d="M284.65,120.37l90.28,39.25h198.72s-158.95,22.13-158.95,22.13c-12.74,1.77-23.68,9.96-28.98,21.68l-88.93,196.68,43.49-211.51c2.94-14.28-2.68-28.97-14.39-37.65l-41.25-30.57Z"/>
            <path class="cls-8" d="M777.8,274.48l26.69,137.96c2.49,12.87-6.21,25.24-19.16,27.24l-189.97,29.46,168.03,13.29c16.36,1.29,26.2,18.74,18.85,33.41l-82.48,164.71,141.28-191.98c1.19-1.52,23.61-15.96,25.14-17.14l109.47-76.97-108.76,29.53c-10.95,2.97-22.44-2.44-27.12-12.77l-61.98-136.74Z"/>
          </g>
          <g>
            <g>
              <circle class="cls-10" cx="417.82" cy="541.22" r="39.79" transform="translate(-253.41 671.39) rotate(-63.31)"/>
              <circle class="cls-10" cx="699.21" cy="541.22" r="39.79" transform="translate(-177.91 652.94) rotate(-45)"/>
            </g>
            <path class="cls-10" d="M558.52,667.72c-40.05,0-80.6-27.69-80.6-80.6h41.26c0,29.04,21.19,39.34,39.34,39.34s39.34-10.3,39.34-39.34h41.26c0,52.91-40.55,80.6-80.6,80.6Z"/>
            <g>
              <path class="cls-13" d="M456.95,534.03c-5.61-15.19-20.21-26.01-37.33-26.01-21.98,0-39.78,17.82-39.78,39.78,0,2.49.22,4.93.68,7.28-1.61-4.32-2.49-8.99-2.49-13.86,0-21.98,17.82-39.8,39.8-39.8,19.51,0,35.74,14.06,39.12,32.6Z"/>
              <path class="cls-13" d="M738.31,533.95c-5.61-15.14-20.21-25.93-37.31-25.93-21.96,0-39.78,17.82-39.78,39.78,0,2.45.22,4.85.66,7.18-1.59-4.28-2.45-8.93-2.45-13.76,0-21.98,17.82-39.8,39.78-39.8,19.49,0,35.7,14.02,39.1,32.52Z"/>
            </g>
            <path class="cls-13" d="M598.33,587.11c-.8,28.02-20.25,45.94-38.01,45.94s-44.69-9.71-44.69-38.76l-35.9-.58c0,7.42.8,14.36,2.27,20.78-2.61-8.21-4.08-17.34-4.08-27.37h41.27c0,29.04,21.2,39.34,39.34,39.34s39.34-10.3,39.34-39.34h.46Z"/>
          </g>
        </g>
      </g>
    </g>
  </g>
</svg>