<?xml version="1.0" encoding="UTF-8"?>
<svg xmlns="http://www.w3.org/2000/svg" viewBox="0 0 922.56 1083.21">
  <defs>
    <style>
      .cls-1 {
        fill: #ffa000;
      }

      .cls-2 {
        mix-blend-mode: multiply;
        opacity: .2;
      }

      .cls-3 {
        fill: #ffa600;
      }

      .cls-4 {
        fill: #ffd94a;
      }

      .cls-5 {
        isolation: isolate;
      }

      .cls-6 {
        fill: #ff53ff;
      }

      .cls-7 {
        fill: #fb90e0;
      }

      .cls-8 {
        fill: #f923db;
      }

      .cls-9 {
        fill: #d804b0;
      }

      .cls-10 {
        fill: #ffb21b;
      }

      .cls-11 {
        fill: #ffa7f1;
      }

      .cls-12 {
        fill: #f822da;
      }

      .cls-13 {
        fill: #fdbf1c;
      }

      .cls-14 {
        fill: #e48e45;
      }

      .cls-15 {
        fill: #dd6b25;
      }

      .cls-16 {
        fill: #ffeec8;
      }

      .cls-17 {
        fill: #fdd540;
      }

      .cls-18 {
        fill: #ea8847;
      }

      .cls-19 {
        fill: #ffd658;
      }
    </style>
  </defs>
  <g class="cls-5">
    <g id="Layer_2" data-name="Layer 2">
      <g id="Object">
        <g>
          <path class="cls-11" d="M587.12,552.34l-10.14,276.34-9.31,253.73-.04.79-.59-.21-.23-.08-464.63-166.07c-9.28-3.31-16-11.41-17.57-21.14l-35.74-222.54-28.6-177.98,547.24,55.16,19.61,1.98Z"/>
          <path class="cls-6" d="M902.29,495.19l-18.51,97.42-41.6,219.06c-1.91,10.05-6.93,19.23-14.4,26.22l-260.11,244.51-.62.59-.23.21v-.28l.19-246.55.21-285.96.3-.06,334.77-55.16Z"/>
          <g class="cls-2">
            <polygon class="cls-12" points="902.29 495.19 883.77 592.62 576.98 828.68 567 836.37 566.81 836.5 50.87 685.61 20.27 495.19 567.51 550.36 902.29 495.19"/>
          </g>
          <path class="cls-7" d="M919.1,502.49c-1.85,14.38-9.43,27.37-21.03,36.06l-333.73,250.65-69.61-18.72-442.72-119.13c-18.63-5.02-33.65-19.02-39.58-37.39-27.37-84.9-2.49-165.87,7.86-193.35,2.4-6.39,4.02-9.9,4.02-9.9,93.27-121.66,312.01-212.89,312.01-212.89l550.04,108.13c43.02,65.29,38.1,154.81,32.74,196.53Z"/>
          <path class="cls-6" d="M919.1,502.49c-1.85,14.38-9.43,27.37-21.03,36.06l-333.73,250.65-69.61-18.72,72.49-220.07,319.15-244.45c43.02,65.29,38.1,154.81,32.74,196.53Z"/>
          <path class="cls-11" d="M564.34,789.2L52.01,651.34c-18.63-5.01-33.66-19.01-39.58-37.37-27.37-84.9-2.49-165.86,7.86-193.36l546.92,129.8c36.67,116.88-2.87,238.79-2.87,238.79Z"/>
          <path class="cls-10" d="M528.01,383.68l-112.14,104.49c-15.26,14.23-24.16,33.99-24.67,54.84l2.97,187.02c-.26,10.79-10.54,18.49-20.97,15.74l-4.23-1.11-197.62-52.39c-7.31-1.95-12.41-8.58-12.41-16.15l-7.41-188.1c.02-22.97,10.22-44.75,27.85-59.47l115.48-96.4,217.59,48.1,15.57,3.44Z"/>
          <path class="cls-4" d="M512.45,380.24l-106.79,99.48c-6.74,6.27-12.24,13.64-16.32,21.69-2.19,4.31-3.97,8.84-5.31,13.49-1.83,6.35-2.87,12.94-3.04,19.67l.04,3.82,1.42,187.74c-.19,7.22-4.68,12.52-11.77,17.46-1,.7-2.27.93-3.44.62l-195.88-51.93c-7.31-1.95-12.41-8.58-12.41-16.15l-7.41-188.1c0-4.84.45-9.63,1.34-14.3.89-4.69,2.19-9.24,3.91-13.64,1.47-3.82,3.23-7.48,5.29-11.01,4.48-7.71,10.31-14.68,17.3-20.52l115.48-96.4,217.59,48.1Z"/>
          <path class="cls-19" d="M344.01,32.24c-11.03-8.22-22.65-15.76-34.87-22.31-10.73-5.76-22.46-9.01-34.33-9.77-13.38-.83-26.96,1.47-39.54,6.91C172.53,34.23,46.85,101.42,39.16,206.91c-.02.02-.02.04-.02.06-.11,1.61-.21,3.23-.26,4.86-5.44,144.18,175.9,188.16,309.19,140.87l1.78-1.85,133.83-139.02s-49.74-112.57-139.66-179.58ZM117.54,314.71c-26.54-17.55-42.94-41.71-47.42-69.88-3.99-25.07-1.64-43.26,6.56-51.25,4.67-4.51,10.99-5.33,15.02-5.33,2.3,0,3.85.26,3.85.26.28.08.21.04.49.09,28.94,5.23,57.05,17.53,83.07,33.21,58.58,35.27,106.51,87.67,129.46,115.18-77.45,15.21-146.16,7.37-191.03-22.29Z"/>
          <path class="cls-10" d="M841.74,585.51c-.21,2.21-1.3,4.23-3.04,5.59l-100.48,79.31-6.73,5.31c-5.44,4.29-13.39.13-12.96-6.78,2.97-47.3,8.01-173.69-19.93-207.69l10.71-7.99,99.99-74.64s44.89,67.31,32.44,206.9Z"/>
          <path class="cls-1" d="M841.74,585.51c-.21,2.21-1.3,4.23-3.04,5.59l-100.48,79.31c-5.35.36-11.94-7.25-11.58-13.09,2.87-45.77,4.45-163.12-20.56-201.64l103.23-77.06s44.89,67.31,32.44,206.9Z"/>
          <path class="cls-17" d="M897.17,147.9c-2.42-6.29-5.4-11.79-8.86-16.57-23.65-32.72-70.05-31.02-120.51-14.85-21.56,6.9-43.85,16.44-65.42,27.05-25.35,12.47-49.72,26.43-70.75,39.37-39.82,24.46-67.71,45.24-67.71,45.24l-161.86,136.02,4.12,3.1,103.34,77.87,131.71,53.84c.85.09,1.74.15,2.64.17,4.93.13,10.69-.72,17.13-2.42.08,0,.17-.04.26-.06,3.97-1.06,8.2-2.46,12.64-4.12,65.57-24.65,177.45-112.27,206.94-161.03,35.38-58.49,16.32-183.62,16.32-183.62ZM692.86,437.01c-11.18,21.23-33.85,33.7-57.73,31.81-.26-.02-.57-.04-.83-.04-1.1-.04-106.09-3.89-188.61-93.74,34.78-15.25,89-36.21,138.79-48.04,10.01-2.38,19.85-4.38,29.32-5.89,9.41-1.51,18.44-2.53,26.92-2.95h.02c16.3-.79,30.55.64,41.35,5.18,5.8,2.44,10.14,5.59,13.24,9.71,1.66,2.21,2.97,4.72,3.95,7.52,11.71,33.65,9.56,66.08-6.42,96.44Z"/>
          <path class="cls-10" d="M568.29,224.86c-61.43,47.55-120.24,111.04-142.21,135.45-15.21,16.89-8.73,28.43-8.73,28.43,0,0-83.48-11.54-78.85-43.92.96-6.74,2.74-13.36,5.16-19.82,26.03-69.01,127.78-119.98,127.78-119.98,42.54-17.64,76.55,3.19,90.28,14.06,4.27,3.36,6.57,5.78,6.57,5.78Z"/>
          <path class="cls-16" d="M344.01,32.24c-112.84,89.75-164.81,189.61-164.81,189.61l-.09-.04-87.41-33.57C92.98,110.32,217.12,32.26,274.81.17c11.86.76,23.6,4.01,34.33,9.77,12.22,6.56,23.84,14.09,34.87,22.31Z"/>
          <path class="cls-16" d="M888.31,131.33l-192.98,201.72-11.01,11.52-43.58-26.41h-.02l-.34-.21,127.42-201.48c50.46-16.17,96.86-17.87,120.51,14.85Z"/>
          <g>
            <path class="cls-14" d="M727.83,330.63c-5.67-16.25-17.13-28.09-34.08-35.18-34.23-14.34-92.04-8.26-171.8,18.04-57.66,19-105.32,41.5-107.32,42.45-4.18,1.98-7.24,5.78-8.26,10.28-.08.34-.15.7-.19,1.04-.66,4.19.47,8.5,3.14,11.83,91.26,113.39,213.96,119.58,223.82,119.9,2.27.17,4.53.25,6.8.25,1.32,0,2.63-.04,3.93-.09,5.82-.25,11.56-1.06,17.13-2.42.08,0,.17-.04.26-.06,4.33-1.06,8.56-2.42,12.64-4.12,19.23-7.82,35.57-22.25,45.68-41.45,13.79-26.18,26.41-68.33,8.24-120.47ZM692.86,437.01c-11.18,21.23-33.85,33.7-57.73,31.81-.26-.02-.57-.04-.83-.04-1.1-.04-106.09-3.89-188.61-93.74,62.1-27.22,186.21-72.73,236.41-51.71,8.94,3.74,14.4,9.22,17.19,17.23,11.71,33.65,9.56,66.08-6.42,96.44Z"/>
            <path class="cls-3" d="M692.86,437.01c-11.18,21.23-33.85,33.7-57.73,31.81-.26-.02-.57-.04-.83-.04-.32-.02-9.56-.34-24.52-3.08-36.14-6.59-105.74-27.13-164.09-90.66,14.4-6.31,32.12-13.6,51.46-20.82,64.19-23.92,146.39-47.04,184.95-30.89,8.94,3.74,14.4,9.22,17.19,17.23,11.71,33.65,9.56,66.08-6.42,96.44Z"/>
          </g>
          <path class="cls-14" d="M347.62,337.6c-4.57-6.31-113.78-154.64-245.98-178.69-9.99-2.06-30.53-1.68-45.58,12.58-8.99,8.52-14.64,20.38-16.89,35.42-.02.02-.02.04-.02.06-1.81,12.15-1.44,26.35,1.13,42.58,5.84,36.78,26.79,68.03,60.6,90.38,34.82,23.03,81.29,34.78,134.17,34.78,32.64,0,67.74-4.5,104.02-13.56,4.87-1.21,8.84-4.78,10.54-9.5.09-.26.19-.53.25-.79,1.38-4.51.57-9.41-2.23-13.24ZM76.68,193.57c4.67-4.51,10.99-5.33,15.02-5.33,2.3,0,3.85.26,3.85.26.28.08.21.04.49.09,94.14,17.02,179.39,108.66,212.53,148.39-77.45,15.21-146.16,7.37-191.03-22.29-26.54-17.55-42.94-41.71-47.42-69.88-3.99-25.07-1.64-43.26,6.56-51.25Z"/>
          <path class="cls-3" d="M308.57,337c-77.45,15.21-146.16,7.37-191.03-22.29-16.76-11.09-29.49-24.8-37.71-40.52-4.78-9.14-8.05-18.99-9.71-29.36-3.99-25.07-1.64-43.26,6.56-51.25,4.67-4.51,10.99-5.33,15.02-5.33,2.3,0,3.85.26,3.85.26.28.08.21.04.49.09,54.26,9.8,105.56,44.41,145.63,79.55,29.45,25.86,52.86,52.01,66.89,68.84Z"/>
          <path class="cls-18" d="M568.29,224.86c-61.43,47.55-120.24,111.04-142.21,135.45-15.21,16.89-8.73,28.43-8.73,28.43,0,0-83.48-11.54-78.85-43.92.96-6.74,2.74-13.36,5.16-19.82,27.11,13.58,93.49,20.8,218.06-105.92,4.27,3.36,6.57,5.78,6.57,5.78Z"/>
          <path class="cls-15" d="M692.86,437.01c-11.18,21.23-33.85,33.7-57.73,31.81-.26-.02-.57-.04-.83-.04-.32-.02-9.56-.34-24.52-3.08,26.39-65.31-55.22-97.35-112.63-111.48,64.19-23.92,146.39-47.04,184.95-30.89,8.94,3.74,14.4,9.22,17.19,17.23,11.71,33.65,9.56,66.08-6.42,96.44Z"/>
          <path class="cls-15" d="M241.68,268.16c-53.56-27.28-150.19-65.59-161.84,6.03-4.78-9.14-8.05-18.99-9.71-29.36-3.99-25.07-1.64-43.26,6.56-51.25,4.67-4.51,10.99-5.33,15.02-5.33,2.3,0,3.85.26,3.85.26.28.08.21.04.49.09,54.26,9.8,105.56,44.41,145.63,79.55Z"/>
          <path class="cls-13" d="M382.23,698.29l.21,27.83c-.19,7.22-4.68,12.52-11.77,17.46-1,.7-2.27.93-3.44.62l-195.88-51.93c-7.31-1.95-12.41-8.58-12.41-16.15l-3.74-94.85-1.78-45.17-1.89-48.08c0-9.67,1.81-19.12,5.25-27.94l227.24,54.82c-1.83,6.35-2.87,12.94-3.04,19.67l.91,119.32.34,44.41Z"/>
          <path class="cls-16" d="M384.02,514.9c-1.83,6.35-2.87,12.94-3.04,19.67l.04,3.82-228.15-64.66c.89-4.69,2.19-9.24,3.91-13.64,1.47-3.82,3.23-7.48,5.29-11.01l227.26,52.35c-2.19,4.31-3.97,8.84-5.31,13.49Z"/>
          <g>
            <g>
              <circle class="cls-8" cx="176.28" cy="807.23" r="31.08" transform="translate(-622.65 596.49) rotate(-62.9)"/>
              <circle class="cls-8" cx="388.29" cy="865.27" r="31.08" transform="translate(-159.2 90.86) rotate(-11.09)"/>
            </g>
            <path class="cls-8" d="M256.19,931.55c-30.18-8.26-55.02-37.48-44.1-77.35l31.09,8.51c-5.99,21.88,7.85,34.01,21.52,37.75,13.67,3.74,31.76.35,37.75-21.52l31.09,8.51c-10.91,39.87-47.17,52.36-77.35,44.1Z"/>
            <g>
              <path class="cls-9" d="M207.24,809.88c-1.1-12.6-9.87-23.76-22.76-27.29-16.56-4.53-33.65,5.22-38.18,21.77-.51,1.88-.85,3.76-.99,5.63-.32-3.59-.02-7.29.98-10.96,4.53-16.56,21.64-26.31,38.2-21.78,14.7,4.02,24.03,17.96,22.75,32.63Z"/>
              <path class="cls-9" d="M419.25,867.86c-1.1-12.57-9.88-23.7-22.76-27.23-16.55-4.53-33.65,5.22-38.18,21.77-.51,1.85-.83,3.7-.98,5.55-.31-3.56,0-7.23.99-10.87,4.53-16.56,21.64-26.31,38.18-21.78,14.68,4.02,24.01,17.93,22.75,32.57Z"/>
            </g>
            <path class="cls-9" d="M302.81,879.03c-6.39,20.94-24.74,30.43-38.12,26.77-13.67-3.74-31.67-16.54-25.68-38.42l-26.93-7.84c-1.53,5.59-2.36,10.99-2.57,16.12-.28-6.72.5-13.9,2.57-21.47l31.1,8.51c-5.99,21.88,7.86,34.01,21.53,37.75,13.67,3.74,31.76.36,37.76-21.53l.35.1Z"/>
          </g>
        </g>
      </g>
    </g>
  </g>
</svg>