<?xml version="1.0" encoding="UTF-8"?>
<svg id="Layer_2" data-name="Layer 2" xmlns="http://www.w3.org/2000/svg" viewBox="0 0 991.76 849.71">
  <defs>
    <style>
      .cls-1 {
        fill: #2f88c9;
      }

      .cls-2 {
        fill: #2f6fb0;
      }

      .cls-3 {
        fill: #57a6d8;
      }

      .cls-4 {
        fill: #1c3a63;
      }

      .cls-5 {
        fill: #cfeaf5;
      }
    </style>
  </defs>
  <g id="Background">
    <g>
      <g>
        <path class="cls-1" d="M495.88,849.7c-6.03,0-12.06-1.19-17.79-3.57C7.88,650.67.1,323.33,0,309.49c-.01-1.71.05-3.4.18-5.07-.12-3.59-.19-7.13-.19-10.58C0,131.82,122.31,0,272.65,0c80.7,0,153.33,37.98,203.29,98.23,10.69,12.88,29.19,12.88,39.87,0C565.78,37.98,638.41,0,719.11,0c150.34,0,272.65,131.82,272.65,293.84,0,3.46-.06,7-.19,10.59.14,1.67.2,3.35.18,5.06-.1,13.84-7.88,341.18-478.09,536.64-5.72,2.38-11.75,3.57-17.79,3.57Z"/>
        <path class="cls-2" d="M991.56,304.44c.14,1.66.21,3.34.19,5.05-.11,13.84-7.89,341.19-478.1,536.64-5.71,2.39-11.75,3.58-17.78,3.58s-12.07-1.19-17.78-3.58C155.59,712.08,50.63,515.98,16.46,401.54c53.64,113.69,172.1,263.27,433.71,372.02,5.73,2.39,11.76,3.56,17.79,3.56s12.05-1.18,17.78-3.56c470.21-195.46,477.99-522.8,478.08-536.64.01-1.71-.04-3.4-.18-5.06.12-3.59.18-7.13.18-10.58,0-25.9-3.12-51.01-8.99-74.94,23.45,43.37,36.91,93.78,36.91,147.51,0,3.45-.07,7-.19,10.6Z"/>
        <g>
          <path class="cls-3" d="M126.85,300.91c-4.27,0-8.59-.33-12.83-.99-45.36-7.07-76.5-49.7-69.44-95.04,9.14-58.68,40.59-110.28,88.54-145.3,38.36-28.02,83.58-42.82,130.77-42.82,11.5,0,23.14.9,34.58,2.69,45.34,7.07,76.48,49.7,69.42,95.04-3.07,19.73-13.15,37.71-28.37,50.63-15.03,12.76-34.15,19.78-53.83,19.78-4.28,0-8.59-.33-12.83-.99-2.96-.46-5.93-.69-8.86-.69-11.75,0-23.06,3.73-32.71,10.78-12.05,8.8-19.96,21.77-22.25,36.52-3.07,19.73-13.15,37.71-28.37,50.63-15.03,12.76-34.15,19.78-53.83,19.78Z"/>
          <path class="cls-5" d="M126.85,245.43c-1.42,0-2.86-.11-4.3-.33-15.14-2.36-25.5-16.54-23.14-31.68,6.86-44.03,30.46-82.76,66.44-109.04,35.99-26.28,80.06-36.98,124.09-30.12,15.14,2.36,25.5,16.54,23.14,31.68-2.36,15.14-16.54,25.49-31.68,23.14-29.39-4.58-58.8,2.56-82.82,20.1-24.02,17.54-39.77,43.39-44.35,72.78-2.13,13.69-13.94,23.47-27.38,23.47Z"/>
        </g>
        <g>
          <path class="cls-3" d="M611.97,238.57c-18.23,0-35.56-5.81-50.12-16.8-36.62-27.64-43.93-79.93-16.29-116.55,25.01-33.14,58.73-58.58,97.52-73.57,25.6-9.89,52.47-14.9,79.88-14.9,15.2,0,30.48,1.58,45.43,4.69,44.93,9.35,73.87,53.51,64.52,98.43-7.99,38.4-42.25,66.27-81.46,66.27-5.67,0-11.38-.59-16.95-1.74-3.68-.77-7.43-1.15-11.18-1.15-17.61,0-34.4,8.32-44.91,22.24-15.63,20.72-40.48,33.09-66.45,33.09Z"/>
          <path class="cls-5" d="M611.97,183.09c-5.82,0-11.69-1.82-16.69-5.6-12.23-9.23-14.66-26.62-5.43-38.85,18.78-24.88,44.1-43.98,73.23-55.24,29.95-11.57,62.45-14.22,94.01-7.65,15,3.12,24.63,17.81,21.51,32.81-3.12,15-17.82,24.62-32.81,21.51-41.97-8.73-85.81,7.75-111.65,41.99-5.45,7.23-13.76,11.03-22.16,11.03Z"/>
        </g>
      </g>
      <g>
        <g>
          <circle class="cls-2" cx="326.1" cy="408.99" r="48.01" transform="translate(-146.87 632.4) rotate(-76.72)"/>
          <circle class="cls-2" cx="665.67" cy="408.99" r="48.01" transform="translate(-94.23 590.49) rotate(-45)"/>
        </g>
        <path class="cls-2" d="M495.88,561.64c-48.33,0-97.26-33.41-97.26-97.26h49.79c0,35.04,25.57,47.47,47.47,47.47s47.47-12.43,47.47-47.47h49.79c0,63.85-48.93,97.26-97.26,97.26Z"/>
        <g>
          <path class="cls-4" d="M373.32,400.31c-6.77-18.33-24.39-31.38-45.05-31.38-26.53,0-48.01,21.5-48.01,48.01,0,3.01.27,5.95.83,8.79-1.94-5.22-3.01-10.85-3.01-16.72,0-26.53,21.5-48.03,48.03-48.03,23.54,0,43.13,16.97,47.21,39.34Z"/>
          <path class="cls-4" d="M712.85,400.21c-6.77-18.28-24.39-31.29-45.02-31.29-26.5,0-48.01,21.5-48.01,48.01,0,2.96.27,5.85.8,8.66-1.92-5.17-2.96-10.78-2.96-16.6,0-26.53,21.5-48.03,48.01-48.03,23.52,0,43.08,16.92,47.18,39.25Z"/>
        </g>
        <path class="cls-4" d="M543.92,464.36c-.97,33.81-24.44,55.44-45.87,55.44s-53.93-11.72-53.93-46.77l-43.32-.7c0,8.96.97,17.33,2.74,25.07-3.16-9.9-4.93-20.92-4.93-33.03h49.81c0,35.05,25.58,47.47,47.48,47.47s47.48-12.43,47.48-47.47h.56Z"/>
      </g>
    </g>
  </g>
</svg>