<?xml version="1.0" encoding="UTF-8"?>
<svg id="Layer_2" data-name="Layer 2" xmlns="http://www.w3.org/2000/svg" viewBox="0 0 916.63 1030.57">
  <defs>
    <style>
      .cls-1 {
        fill: #57a6d8;
      }

      .cls-2 {
        fill: #9fd0e8;
      }

      .cls-3 {
        fill: #eaedf4;
      }

      .cls-4 {
        fill: #1c3a63;
      }

      .cls-5 {
        fill: #2f88c9;
      }

      .cls-6 {
        fill: #fff;
      }

      .cls-7 {
        fill: #2f6fb0;
      }
    </style>
  </defs>
  <g id="Background">
    <g>
      <g>
        <g>
          <polygon class="cls-5" points="916.63 918.74 777.94 902.32 722.64 1030.57 464.88 583.4 658.87 471.57 916.63 918.74"/>
          <polygon class="cls-5" points="0 918.12 138.72 901.88 193.84 1030.21 452.22 583.39 258.38 471.3 0 918.12"/>
        </g>
        <path class="cls-7" d="M500.25,12.21h0c37.97-24.31,88.62-10.7,109.29,29.36h0c13.72,26.58,41.65,42.73,71.53,41.36h0c45.04-2.06,82.09,35.04,79.97,80.08h0c-1.41,29.87,14.71,57.83,41.26,71.58h0c40.03,20.73,53.57,71.4,29.22,109.33h0c-16.16,25.17-16.18,57.44-.06,82.63h0c24.31,37.97,10.7,88.62-29.36,109.29h0c-26.58,13.72-42.73,41.65-41.36,71.53h0c2.06,45.04-35.04,82.09-80.08,79.97h0c-29.87-1.41-57.83,14.71-71.58,41.26h0c-20.73,40.03-71.4,53.57-109.33,29.22h0c-25.17-16.16-57.44-16.18-82.63-.06h0c-37.97,24.31-88.62,10.7-109.29-29.36h0c-13.72-26.58-41.65-42.73-71.53-41.36h0c-45.04,2.06-82.09-35.04-79.97-80.08h0c1.41-29.87-14.71-57.83-41.26-71.58h0c-40.03-20.73-53.57-71.4-29.22-109.33h0c16.16-25.17,16.18-57.44.06-82.63h0c-24.31-37.97-10.7-88.62,29.36-109.29h0c26.58-13.72,42.73-41.65,41.36-71.53h0c-2.06-45.04,35.04-82.09,80.08-79.97h0c29.87,1.41,57.83-14.71,71.58-41.26h0c20.73-40.03,71.4-53.57,109.33-29.22h0c25.17,16.16,57.44,16.18,82.63.06Z"/>
        <path class="cls-2" d="M534.64,729.99c-10.18,0-20.14-2.95-28.79-8.5-16.06-10.31-34.63-15.77-53.72-15.78-19.08-.01-37.67,5.42-53.74,15.71-8.66,5.54-18.62,8.47-28.81,8.46-20.16-.01-38.42-11.13-47.64-29.01-17.14-33.22-51.01-53.87-88.38-53.9-1.55,0-3.09.03-4.64.1-.86.04-1.72.06-2.57.06-14.72-.01-28.45-5.91-38.65-16.61-10.19-10.69-15.42-24.7-14.72-39.47,1.83-38.73-19.24-75.27-53.66-93.09-13.54-7.01-23.17-18.99-27.11-33.73-3.94-14.73-1.57-29.92,6.67-42.75,20.95-32.62,20.97-74.8.07-107.45-8.22-12.85-10.57-28.03-6.61-42.76,3.96-14.73,13.6-26.69,27.15-33.69,34.45-17.78,55.56-54.29,53.79-93.02-.68-14.76,4.57-28.77,14.77-39.44,10.22-10.69,23.95-16.57,38.68-16.56.85,0,1.7.02,2.56.06,1.55.07,3.1.11,4.64.11,37.37.03,71.26-20.58,88.45-53.77,9.25-17.87,27.52-28.95,47.68-28.94,10.18,0,20.14,2.95,28.8,8.51,16.06,10.31,34.63,15.77,53.72,15.78,19.08.01,37.67-5.42,53.74-15.71,8.66-5.55,18.63-8.47,28.81-8.47,20.16.01,38.42,11.13,47.64,29.01,17.14,33.22,51.01,53.87,88.38,53.9,1.54,0,3.09-.03,4.64-.1.86-.04,1.71-.06,2.56-.06,14.73,0,28.46,5.91,38.66,16.61,10.19,10.69,15.41,24.7,14.72,39.46-1.83,38.73,19.24,75.27,53.66,93.1,13.54,7.01,23.17,18.99,27.11,33.73,3.94,14.73,1.57,29.92-6.67,42.75-20.95,32.62-20.98,74.8-.07,107.45,8.22,12.85,10.57,28.03,6.61,42.76-3.96,14.73-13.6,26.69-27.15,33.69-34.45,17.78-55.57,54.29-53.79,93.02.68,14.76-4.57,28.77-14.77,39.44-10.22,10.69-23.95,16.57-38.68,16.56-.85,0-1.71-.02-2.57-.06-1.55-.07-3.1-.11-4.64-.11-37.37-.03-71.26,20.58-88.45,53.78-9.25,17.86-27.52,28.95-47.69,28.94Z"/>
        <circle class="cls-6" cx="458.68" cy="384.98" r="290.08" transform="translate(-137.88 437.1) rotate(-45)"/>
        <path class="cls-2" d="M624.27,313.07l-69.27-21.11c-8.82-2.69-16.45-8.34-21.59-15.99l-40.39-60.11c-15.71-23.38-50.01-23.7-66.15-.61l-41.49,59.36c-5.28,7.56-13.01,13.07-21.88,15.59l-69.65,19.84c-27.1,7.72-37.99,40.24-21.02,62.72l43.63,57.8c5.56,7.36,8.41,16.41,8.07,25.63l-2.66,72.37c-1.03,28.15,26.53,48.57,53.16,39.37l68.45-23.64c8.72-3.01,18.21-2.92,26.87.25l68.01,24.89c26.46,9.68,54.39-10.22,53.87-38.39l-1.33-72.41c-.17-9.22,2.85-18.22,8.54-25.48l44.69-56.99c17.38-22.17,7.09-54.88-19.86-63.1Z"/>
        <path class="cls-3" d="M748.77,385.18c-.11,160.21-130.09,289.99-290.3,289.88-107.86-.07-201.92-59-251.84-146.37,54.86,63.04,136.91,103.1,228.64,103.16,165.27.11,299.32-129.67,299.43-289.88.02-24.04-2.98-47.36-8.65-69.7,14.65,34.7,22.75,72.86,22.72,112.91Z"/>
        <path class="cls-1" d="M644.12,376.16l-44.69,56.99c-5.69,7.26-8.71,16.26-8.53,25.48l1.33,72.41c.51,28.15-27.43,48.06-53.87,38.38l-68-24.89c-8.67-3.16-18.17-3.26-26.87-.25l-68.47,23.65c-24.48,8.45-49.77-8.13-52.86-32.74,9.63,14.48,28.3,22.08,46.55,15.77l68.45-23.65c8.72-3.01,18.22-2.91,26.87.25l68.02,24.89c26.45,9.7,54.38-10.22,53.87-38.38l-1.33-72.41c-.18-9.22,2.84-18.22,8.53-25.48l44.69-56.99c7.07-9.01,9.56-19.77,8.21-29.92,9.03,13.69,9.41,32.51-1.9,46.9Z"/>
      </g>
      <g>
        <g>
          <circle class="cls-7" cx="391.72" cy="381.9" r="18.83" transform="translate(-116.33 178.98) rotate(-22.5)"/>
          <circle class="cls-7" cx="524.92" cy="381.9" r="18.83" transform="translate(-106.19 229.95) rotate(-22.5)"/>
        </g>
        <path class="cls-7" d="M458.32,441.78c-18.96,0-38.15-13.11-38.15-38.15h19.53c0,13.74,10.03,18.62,18.62,18.62s18.62-4.88,18.62-18.62h19.53c0,25.05-19.19,38.15-38.15,38.15Z"/>
        <g>
          <path class="cls-4" d="M410.24,378.5c-2.66-7.19-9.57-12.31-17.67-12.31-10.41,0-18.83,8.44-18.83,18.83,0,1.18.1,2.33.32,3.45-.76-2.05-1.18-4.26-1.18-6.56,0-10.41,8.44-18.84,18.84-18.84,9.24,0,16.92,6.66,18.52,15.43Z"/>
          <path class="cls-4" d="M543.43,378.46c-2.66-7.17-9.57-12.27-17.66-12.27-10.4,0-18.83,8.44-18.83,18.83,0,1.16.1,2.29.31,3.4-.75-2.03-1.16-4.23-1.16-6.51,0-10.41,8.44-18.84,18.83-18.84,9.23,0,16.9,6.64,18.51,15.4Z"/>
        </g>
        <path class="cls-4" d="M477.16,403.62c-.38,13.26-9.59,21.75-17.99,21.75s-21.16-4.6-21.16-18.35l-16.99-.28c0,3.51.38,6.8,1.08,9.83-1.24-3.88-1.93-8.21-1.93-12.96h19.54c0,13.75,10.03,18.62,18.62,18.62s18.62-4.87,18.62-18.62h.22Z"/>
      </g>
    </g>
  </g>
</svg>